<?xml version="1.0" encoding="UTF-8"?>
<!DOCTYPE svg PUBLIC "-//W3C//DTD SVG 1.1//EN" "http://www.w3.org/Graphics/SVG/1.1/DTD/svg11.dtd">
<!-- Creator: CorelDRAW (OEM Version) -->
<svg xmlns="http://www.w3.org/2000/svg" xml:space="preserve" width="210mm" height="297mm" version="1.1" style="shape-rendering:geometricPrecision; text-rendering:geometricPrecision; image-rendering:optimizeQuality; fill-rule:evenodd; clip-rule:evenodd"
viewBox="0 0 21000 29700"
 xmlns:xlink="http://www.w3.org/1999/xlink"
 xmlns:xodm="http://www.corel.com/coreldraw/odm/2003"
 text-anchor="middle"
 role="img"
 aria-labelledby="title desc">
 <defs>
  <style type="text/css">
   <![CDATA[
    .str3 {stroke:#6D39F3;stroke-width:20;stroke-miterlimit:22.9256}
    .str4 {stroke:#6D39F3;stroke-width:317.5;stroke-linecap:round;stroke-linejoin:round;stroke-miterlimit:22.9256}
    .str2 {stroke:#6D39F3;stroke-width:476.25;stroke-linecap:round;stroke-linejoin:round;stroke-miterlimit:22.9256}
    .str5 {stroke:white;stroke-width:476.25;stroke-linecap:round;stroke-linejoin:round;stroke-miterlimit:22.9256}
    .str1 {stroke:#6D39F3;stroke-width:250;stroke-miterlimit:22.9256}
    .str0 {stroke:#6D39F3;stroke-width:899.58;stroke-linejoin:round;stroke-miterlimit:22.9256}
    .fil1 {fill:none}
    .fil2 {fill:none;fill-rule:nonzero}
    .fil4 {fill:#FEFEFE;fill-rule:nonzero}
    .fil3 {fill:#6D39F3;fill-rule:nonzero}
    .fil0 {fill:white;fill-rule:nonzero}
   ]]>
  </style>
 </defs>
 <g id="Layer_x0020_1">
  <metadata id="CorelCorpID_0Corel-Layer"/>
  <g id="_2317894434864">
   <polygon class="fil0 str0" points="10492.87,2573.86 21129.12,8712.19 21129.12,20988.86 12003.93,26255.14 10492.87,27127.19 9199.19,26380.59 -143.38,20988.86 -143.38,8712.19 "/>
   <path class="fil1 str1" d="M15810.99 5643.03l-2772.21 4794.72m8090.34 4412.77l-5542.43 0.01m-10411.94 9207.49l2772.2 -4794.71m7864.04 4794.71l-2772.2 -4794.71m-13182.17 -4412.79l5542.43 0.01m-224.3 -9207.5l2772.1 4794.78m2546.02 -681.1c927.43,0 1796.88,247.96 2545.91,681.04l0.03 0.02c1523.04,880.61 2547.88,2526.96 2547.88,4412.76 0,1885.8 -1024.83,3532.14 -2547.87,4412.76l-0.03 0.02c-749.02,433.08 -1618.49,681.04 -2545.92,681.04 -927.42,0 -1796.86,-247.95 -2545.88,-681.02l-0.04 -0.02c-1523.05,-880.62 -2547.9,-2526.97 -2547.9,-4412.78 0,-1885.77 1024.81,-3532.09 2547.8,-4412.72l0.03 -0.02c749.05,-433.1 1618.53,-681.08 2545.99,-681.08z"/>
  </g>
  <path class="fil2 str2" d="M7519.9 14218.54c0.01,-1636.59 1327.22,-2963.81 2963.81,-2963.81 1636.6,0 2963.81,1327.22 2963.81,2963.81"/>
  <path class="fil3" d="M7530.32 13695.51l43.58 0c288.82,0 523.04,234.22 523.04,523.03l-0.01 1394.74c0.01,288.8 -234.21,523.01 -523.02,523.01l-43.59 0.01c-288.8,-0.01 -523.02,-234.22 -523.02,-523.03l-0.01 -1394.73c0.01,-288.81 234.23,-523.03 523.03,-523.03z"/>
  <g id="_2317894430688">
   <path class="fil3 str3" d="M13411.84 13695.51l43.58 0c288.81,0 523.03,234.22 523.03,523.03l0 1394.74c0,288.8 -234.22,523.01 -523.03,523.01l-43.58 0.01c-288.81,-0.01 -523.03,-234.22 -523.03,-523.03l0 -1394.73c0,-288.81 234.22,-523.03 523.03,-523.03z"/>
   <path class="fil2 str2" d="M13411.84 16136.3c0,1307.57 -958.89,2004.94 -2288.25,2004.94"/>
   <path class="fil3 str3" d="M10774.92 17618.21l871.71 0c228.64,-0.01 414.06,185.42 414.06,414.06l0 0.01c0,228.63 -185.42,414.05 -414.06,414.05l-871.71 0c-228.64,0 -414.07,-185.42 -414.07,-414.06l0 0.01c0,-228.65 185.43,-414.08 414.07,-414.08z"/>
  </g>
  <g id="_2317894431360">
   <path class="fil3" d="M9441.88 13260.03l2101.98 0c504.47,0 910.85,406.38 910.85,910.86l0 546.51c0,504.47 -406.38,910.85 -910.85,910.85l-840.79 0 -980.92 812.76 0 -812.76 -280.27 0c-504.47,0 -910.85,-406.38 -910.85,-910.85l0 -546.51c0,-504.48 406.38,-910.86 910.85,-910.86z"/>
   <circle class="fil3" cx="9862.28" cy="14451.15" r="182.17"/>
   <circle class="fil3" cx="10492.87" cy="14451.15" r="182.17"/>
   <circle class="fil3" cx="11123.46" cy="14451.15" r="182.17"/>
  </g>
  <path class="fil3" d="M8321.58 5066.08l4342.58 0c299.75,0 542.83,180.85 542.83,403.85l0 717.95c-466.25,0 -844.37,281.31 -844.37,628.2 0,346.89 378.12,628.2 844.37,628.2l0 717.95c0,223 -243.08,403.85 -542.81,403.85l-4342.6 0c-299.71,0 -542.79,-180.85 -542.79,-403.85l0 -717.95c466.26,0 844.38,-281.31 844.38,-628.2 0,-346.89 -378.12,-628.2 -844.38,-628.2l-0.03 -717.95c0.03,-223 243.11,-403.85 542.85,-403.85l-0.03 0z"/>
  <path class="fil4" d="M9707.62 6053.26l1570.51 0c86.74,0 157.07,70.33 157.07,157.06l-0.02 0c0.02,86.72 -70.31,157.05 -157.04,157.05l-1570.52 -0.01c-86.71,0.01 -157.04,-70.32 -157.04,-157.04l-0.02 0c0.02,-86.73 70.35,-157.06 157.07,-157.06z"/>
  <path class="fil4" d="M9707.62 7219.93l1570.51 0c86.74,0 157.07,70.33 157.07,157.05l-0.02 0c0.02,86.72 -70.31,157.05 -157.04,157.05l-1570.52 0c-86.71,0 -157.04,-70.33 -157.04,-157.05l-0.02 0c0.02,-86.72 70.35,-157.05 157.07,-157.05z"/>
  <g id="_2317894428912">
   <circle class="fil3" cx="3092.13" cy="10192.79" r="899.58"/>
   <path class="fil3" d="M1451.71 12468.21c185.21,-714.37 1005.42,-1084.79 1640.42,-1084.79 635,0 1455.21,370.42 1640.42,1084.79 52.92,198.44 -211.67,370.42 -635,370.42l-2010.84 0c-423.33,0 -687.92,-171.98 -635,-370.42z"/>
  </g>
  <path class="fil2 str4" d="M18543.03 9315.92l0 1072.58m-1580.64 -1072.58l0 1072.58m-282.27 -508.07l2145.18 0c249.37,0.01 451.61,202.25 451.61,451.62l0 2032.26c0,249.38 -202.24,451.61 -451.61,451.61l-2145.18 0c-249.37,0 -451.6,-202.23 -451.6,-451.61l0 -2032.26c0,-249.37 202.23,-451.61 451.6,-451.61z"/>
  <g id="_2317894426176">
   <path class="fil3" d="M17018.83 10953.02l282.27 0c62.34,0.01 112.9,50.57 112.9,112.91l0 282.25c0,62.35 -50.56,112.9 -112.9,112.9l-282.27 0c-62.34,0 -112.9,-50.55 -112.9,-112.9l0 -282.26c0,-62.33 50.56,-112.89 112.9,-112.89z"/>
   <path class="fil3" d="M17611.58 10953.02l282.26 0c62.34,0.01 112.9,50.57 112.9,112.91l0 282.25c0,62.35 -50.56,112.9 -112.9,112.9l-282.26 0c-62.34,0 -112.9,-50.55 -112.9,-112.9l-0.01 -282.26c0.01,-62.33 50.57,-112.89 112.91,-112.89z"/>
   <path class="fil3" d="M18204.32 10953.02l282.27 0c62.34,0.01 112.89,50.57 112.89,112.91l0 282.25c0,62.35 -50.55,112.9 -112.89,112.9l-282.27 0c-62.34,0 -112.9,-50.55 -112.9,-112.9l0 -282.26c0,-62.33 50.56,-112.89 112.9,-112.89z"/>
   <path class="fil3" d="M17018.83 11686.89l282.27 0c62.34,0 112.9,50.56 112.9,112.9l0 282.26c0,62.35 -50.56,112.91 -112.9,112.91l-282.27 0c-62.34,0 -112.9,-50.56 -112.9,-112.9l0 -282.27c0,-62.34 50.56,-112.9 112.9,-112.9z"/>
   <path class="fil3" d="M17611.58 11686.89l282.26 0c62.34,0 112.9,50.56 112.9,112.9l0 282.26c0,62.35 -50.56,112.91 -112.9,112.91l-282.26 0c-62.34,0 -112.9,-50.56 -112.9,-112.9l-0.01 -282.27c0.01,-62.34 50.57,-112.9 112.91,-112.9z"/>
   <path class="fil3" d="M18204.32 11686.89l282.27 0c62.34,0 112.89,50.56 112.89,112.9l0 282.26c0,62.35 -50.55,112.91 -112.89,112.91l-282.27 0c-62.34,0 -112.9,-50.56 -112.9,-112.9l0 -282.27c0,-62.34 50.56,-112.9 112.9,-112.9z"/>
  </g>
  <g id="_2317894423968">
   <path class="fil3" d="M3185.08 17014.31l1480.28 547.83 0 1034.78c0,897.83 -667.93,1582.62 -1480.27,1917.4 -812.35,-334.78 -1480.28,-1019.57 -1480.28,-1917.4l0 -1034.78 1480.27 -547.83z"/>
   <polyline class="fil2 str5" points="2553.25,18475.18 3040.67,18886.05 3961.32,17896.92 "/>
  </g>
  <g id="_2317894422768">
   <path class="fil2 str4" d="M15846.86 17179.1c909.61,-368.18 1472.7,-86.63 1905.84,519.77l0 2815.45c-519.78,-584.75 -1169.49,-844.64 -1905.84,-519.78l0 -2815.44z"/>
   <path class="fil2 str4" d="M17752.7 17698.87c433.15,-606.4 996.23,-887.95 1905.84,-519.77l0 2815.44c-736.35,-324.86 -1386.06,-64.97 -1905.84,519.78l0 -2815.45z"/>
   <line class="fil2 str4" x1="17752.7" y1="17698.87" x2="17752.7" y2= "20514.32" />
  </g>
  <g id="_2317894421472">
   <path class="fil3" d="M8592.33 22441.57l593.91 0c131.2,-0.01 237.59,63.32 237.59,141.41l-0.02 1414.14c0.02,78.09 -106.37,141.42 -237.56,141.42l-593.92 0c-131.17,0 -237.56,-63.33 -237.56,-141.42l-0.01 -1414.13c0.01,-78.1 106.4,-141.43 237.58,-141.43z"/>
   <path class="fil3" d="M10195.91 21593.09l593.91 0c131.2,-0.01 237.59,63.32 237.59,141.41l-0.01 2262.62c0.01,78.09 -106.38,141.42 -237.56,141.42l-593.93 0c-131.17,0 -237.56,-63.33 -237.56,-141.42l-0.01 -2262.62c0.01,-78.09 106.4,-141.42 237.58,-141.42z"/>
   <path class="fil3" d="M11799.49 20638.54l593.92 0c131.19,0 237.58,63.32 237.58,141.41l-0.01 3217.17c0.01,78.09 -106.38,141.42 -237.56,141.42l-593.93 0c-131.17,0 -237.56,-63.33 -237.56,-141.42l-0.01 -3217.16c0.01,-78.1 106.4,-141.42 237.59,-141.42z"/>
  </g>
 </g>
</svg>
